<svg width="26" height="31" viewBox="0 0 26 31" fill="none" xmlns="http://www.w3.org/2000/svg">
    <path d="M11.7245 7.09788C11.0857 6.43851 10.3645 5.84096 9.60214 5.28462C10.3233 3.61559 11.436 2.1114 12.9196 0.895691C14.4032 2.1114 15.5365 3.61559 16.2576 5.28462C15.4746 5.82035 14.7741 6.41791 14.1353 7.09788C13.9498 6.95364 13.785 6.80941 13.5996 6.66517L12.9402 6.19125L12.2808 6.66517C12.0748 6.7888 11.9099 6.95364 11.7245 7.09788ZM6.40832 5.73793C5.29563 7.28333 4.63626 9.03478 4.40961 10.8274C5.5429 11.2601 6.59377 11.8371 7.56221 12.4965C8.18037 11.0129 9.087 9.65294 10.2203 8.45783C9.16943 7.34514 7.87129 6.41791 6.40832 5.73793ZM11.5596 16.7824C11.8481 16.6175 12.1366 16.4733 12.4251 16.329L12.9196 16.1024L13.4141 16.329C13.7026 16.4733 13.9911 16.6175 14.2795 16.7824C14.9183 15.7315 15.6601 14.763 16.5667 13.9182C15.8867 11.9401 14.6504 10.1269 12.9196 8.7257C11.2093 10.1269 9.95243 11.9195 9.29306 13.8976C10.1791 14.7424 10.9415 15.7109 11.5596 16.7824ZM21.4296 10.8274C21.2029 9.03478 20.5435 7.28333 19.4309 5.73793C17.9473 6.41791 16.6697 7.34514 15.6189 8.45783C16.7522 9.65294 17.6588 11.0335 18.277 12.4965C19.2454 11.8371 20.2963 11.2808 21.4296 10.8274ZM16.0104 17.9157C16.9788 18.6368 17.8236 19.4817 18.5654 20.4295C20.2345 19.4198 22.0683 18.7605 24.0052 18.4308C24.0876 16.3909 23.5725 14.3715 22.501 12.5377C19.6781 13.5679 17.3909 15.4636 16.0104 17.9157ZM9.8494 17.9157C8.44824 15.4636 6.16105 13.5679 3.35874 12.5377C2.26666 14.3715 1.77213 16.3909 1.83395 18.4102C3.77084 18.7399 5.62532 19.3992 7.27374 20.4089C8.01553 19.4817 8.88095 18.6368 9.8494 17.9157ZM13.9705 30.8146C20.1108 30.3406 25.0355 25.8281 25.5712 20.1822C23.1604 20.3677 20.8732 21.1919 18.9363 22.5724L18.0091 23.2318L17.3909 22.3046C16.2782 20.6355 14.7329 19.255 12.9196 18.2865C11.1063 19.255 9.56093 20.6355 8.44824 22.3046L7.83008 23.2318L6.90284 22.5724C4.94534 21.1919 2.67876 20.3677 0.267944 20.1822C0.803682 25.8487 5.72834 30.3406 11.8687 30.8146H13.9705Z" fill="#FA6B54"/>
</svg>
